<?xml version="1.0" encoding="utf-8"?>
<!-- Generator: Adobe Illustrator 17.0.0, SVG Export Plug-In . SVG Version: 6.00 Build 0)  -->
<!DOCTYPE svg PUBLIC "-//W3C//DTD SVG 1.1//EN" "http://www.w3.org/Graphics/SVG/1.1/DTD/svg11.dtd">
<svg version="1.1" id="Слой_1" xmlns="http://www.w3.org/2000/svg" xmlns:xlink="http://www.w3.org/1999/xlink" x="0px" y="0px"
	 width="62.255px" height="123.971px" viewBox="0 0 62.255 123.971" enable-background="new 0 0 62.255 123.971"
	 xml:space="preserve">
<g>
	<defs>
		<rect id="SVGID_1_" y="0" width="62.255" height="123.971"/>
	</defs>
	<clipPath id="SVGID_2_">
		<use xlink:href="#SVGID_1_"  overflow="visible"/>
	</clipPath>
	<path clip-path="url(#SVGID_2_)" fill="#EEEEEE" d="M35.854,10.144c0,0,0.644-8.614-10.304-10.143
		C25.55,0.001,24.825,9.661,35.854,10.144"/>
	<path clip-path="url(#SVGID_2_)" fill="#EEEEEE" d="M39.819,16.042c0,0-3.864-7.725-14.048-3.425
		C25.771,12.617,30.103,21.283,39.819,16.042"/>
	<path clip-path="url(#SVGID_2_)" fill="#EEEEEE" d="M40.122,1.153c0,0-6.272,5.939,0.798,14.437
		C40.92,15.59,47.956,8.931,40.122,1.153"/>
	<path clip-path="url(#SVGID_2_)" fill="#EEEEEE" d="M45.381,24.226c0,0-2.944-8.121-13.557-5.027
		C31.824,19.199,35.124,28.307,45.381,24.226"/>
	<path clip-path="url(#SVGID_2_)" fill="#EEEEEE" d="M47.404,9.473c0,0-6.917,5.174-0.877,14.433
		C46.527,23.906,54.286,18.105,47.404,9.473"/>
	<path clip-path="url(#SVGID_2_)" fill="#EEEEEE" d="M49.331,33.368c0,0-1.459-8.514-12.452-7.349
		C36.879,26.019,38.513,35.567,49.331,33.368"/>
	<path clip-path="url(#SVGID_2_)" fill="#EEEEEE" d="M53.937,19.207c0,0-7.724,3.866-3.421,14.049
		C50.515,33.256,59.18,28.922,53.937,19.207"/>
	<path clip-path="url(#SVGID_2_)" fill="#EEEEEE" d="M51.434,43.028c0,0-0.42-8.628-11.473-8.8
		C39.961,34.228,40.429,43.904,51.434,43.028"/>
	<path clip-path="url(#SVGID_2_)" fill="#EEEEEE" d="M57.716,29.527c0,0-8.135,2.905-5.093,13.533
		C52.623,43.06,61.747,39.804,57.716,29.527"/>
	<path clip-path="url(#SVGID_2_)" fill="#EEEEEE" d="M52.578,52.91c0,0,0.762-8.604-10.164-10.284
		C42.414,42.626,41.557,52.276,52.578,52.91"/>
	<path clip-path="url(#SVGID_2_)" fill="#EEEEEE" d="M60.645,40.393c0,0-8.455,1.767-6.893,12.711
		C53.752,53.104,63.236,51.124,60.645,40.393"/>
	<path clip-path="url(#SVGID_2_)" fill="#EEEEEE" d="M51.772,62.741c0,0,2.52-8.262-7.825-12.159
		C43.947,50.582,41.118,59.848,51.772,62.741"/>
	<path clip-path="url(#SVGID_2_)" fill="#EEEEEE" d="M62.247,52.157c0,0-8.638-0.014-9.365,11.016
		C52.882,63.173,62.569,63.192,62.247,52.157"/>
	<path clip-path="url(#SVGID_2_)" fill="#EEEEEE" d="M49.72,72.774c0,0,3.979-7.667-5.486-13.378
		C44.234,59.396,39.769,67.993,49.72,72.774"/>
	<path clip-path="url(#SVGID_2_)" fill="#EEEEEE" d="M61.943,64.268c0,0-8.491-1.584-11.211,9.131
		C50.732,73.399,60.255,75.178,61.943,64.268"/>
	<path clip-path="url(#SVGID_2_)" fill="#EEEEEE" d="M46.098,82.173c0,0,5.045-7.012-3.496-14.03
		C42.602,68.143,36.942,76.005,46.098,82.173"/>
	<path clip-path="url(#SVGID_2_)" fill="#EEEEEE" d="M59.422,74.958c0,0-8.174-2.794-12.412,7.416
		C47.01,82.374,56.176,85.509,59.422,74.958"/>
	<path clip-path="url(#SVGID_2_)" fill="#EEEEEE" d="M40.27,90.799c0,0,6.327-5.881-0.664-14.444
		C39.606,76.355,32.508,82.949,40.27,90.799"/>
	<path clip-path="url(#SVGID_2_)" fill="#EEEEEE" d="M54.754,86.35c0,0-7.463-4.349-13.63,4.826
		C41.124,91.176,49.493,96.056,54.754,86.35"/>
	<path clip-path="url(#SVGID_2_)" fill="#EEEEEE" d="M34.047,98.906c0,0,7.116-4.896,1.447-14.387
		C35.494,84.519,27.512,90.009,34.047,98.906"/>
	<path clip-path="url(#SVGID_2_)" fill="#EEEEEE" d="M49.025,96.614c0,0-6.75-5.389-14.188,2.789
		C34.837,99.403,42.406,105.45,49.025,96.614"/>
	<path clip-path="url(#SVGID_2_)" fill="#EEEEEE" d="M26.739,105.412c0,0,7.254-4.099,2.614-13.699
		C29.353,91.713,21.217,96.308,26.739,105.412"/>
	<path clip-path="url(#SVGID_2_)" fill="#EEEEEE" d="M41.324,104.485c0,0-6.027-5.753-13.869,1.473
		C27.455,105.958,34.213,112.411,41.324,104.485"/>
	<path clip-path="url(#SVGID_2_)" fill="#EEEEEE" d="M18.024,110.569c0,0,7.892-2.67,5.129-12.969
		C23.153,97.6,14.301,100.593,18.024,110.569"/>
	<path clip-path="url(#SVGID_2_)" fill="#EEEEEE" d="M32.525,112.384c0,0-4.845-6.778-13.899-1.146
		C18.626,111.238,24.058,118.841,32.525,112.384"/>
	<path clip-path="url(#SVGID_2_)" fill="#EEEEEE" d="M9.041,114.892c0,0,8.187-1.543,6.888-12.127
		C15.929,102.765,6.746,104.494,9.041,114.892"/>
	<path clip-path="url(#SVGID_2_)" fill="#EEEEEE" d="M23.147,118.713c0,0-3.852-7.387-13.604-3.074
		C9.543,115.639,13.862,123.926,23.147,118.713"/>
	<path clip-path="url(#SVGID_2_)" fill="#EEEEEE" d="M0.034,117.112c0,0,8.327-0.265,8.672-10.922
		C8.706,106.19-0.633,106.485,0.034,117.112"/>
	<path clip-path="url(#SVGID_2_)" fill="#EEEEEE" d="M13.384,123.058c0,0-2.67-7.892-12.969-5.13
		C0.415,117.928,3.407,126.78,13.384,123.058"/>
</g>
</svg>
