<?xml version="1.0" encoding="utf-8"?>
<!-- Generator: Adobe Illustrator 17.0.0, SVG Export Plug-In . SVG Version: 6.00 Build 0)  -->
<!DOCTYPE svg PUBLIC "-//W3C//DTD SVG 1.1//EN" "http://www.w3.org/Graphics/SVG/1.1/DTD/svg11.dtd">
<svg version="1.1" id="Слой_1" xmlns="http://www.w3.org/2000/svg" xmlns:xlink="http://www.w3.org/1999/xlink" x="0px" y="0px"
	 width="62.255px" height="123.971px" viewBox="0 0 62.255 123.971" enable-background="new 0 0 62.255 123.971"
	 xml:space="preserve">
<g>
	<defs>
		<rect id="SVGID_1_" y="0" width="62.255" height="123.971"/>
	</defs>
	<clipPath id="SVGID_2_">
		<use xlink:href="#SVGID_1_"  overflow="visible"/>
	</clipPath>
	<path clip-path="url(#SVGID_2_)" fill="#EEEEEE" d="M26.401,10.144c0,0-0.644-8.614,10.304-10.143
		C36.705,0.001,37.43,9.661,26.401,10.144"/>
	<path clip-path="url(#SVGID_2_)" fill="#EEEEEE" d="M22.437,16.042c0,0,3.864-7.725,14.048-3.425
		C36.485,12.617,32.153,21.283,22.437,16.042"/>
	<path clip-path="url(#SVGID_2_)" fill="#EEEEEE" d="M22.133,1.153c0,0,6.272,5.939-0.798,14.437
		C21.335,15.59,14.299,8.931,22.133,1.153"/>
	<path clip-path="url(#SVGID_2_)" fill="#EEEEEE" d="M16.874,24.226c0,0,2.944-8.121,13.557-5.027
		C30.431,19.199,27.131,28.307,16.874,24.226"/>
	<path clip-path="url(#SVGID_2_)" fill="#EEEEEE" d="M14.851,9.473c0,0,6.917,5.174,0.877,14.433
		C15.728,23.906,7.969,18.105,14.851,9.473"/>
	<path clip-path="url(#SVGID_2_)" fill="#EEEEEE" d="M12.924,33.368c0,0,1.459-8.514,12.452-7.349
		C25.376,26.019,23.742,35.567,12.924,33.368"/>
	<path clip-path="url(#SVGID_2_)" fill="#EEEEEE" d="M8.319,19.207c0,0,7.724,3.866,3.421,14.049
		C11.74,33.256,3.076,28.922,8.319,19.207"/>
	<path clip-path="url(#SVGID_2_)" fill="#EEEEEE" d="M10.821,43.028c0,0,0.42-8.628,11.473-8.8
		C22.294,34.228,21.826,43.904,10.821,43.028"/>
	<path clip-path="url(#SVGID_2_)" fill="#EEEEEE" d="M4.539,29.527c0,0,8.135,2.905,5.093,13.533
		C9.632,43.06,0.508,39.804,4.539,29.527"/>
	<path clip-path="url(#SVGID_2_)" fill="#EEEEEE" d="M9.677,52.91c0,0-0.762-8.604,10.164-10.284
		C19.841,42.626,20.698,52.276,9.677,52.91"/>
	<path clip-path="url(#SVGID_2_)" fill="#EEEEEE" d="M1.61,40.393c0,0,8.455,1.767,6.893,12.711
		C8.503,53.104-0.981,51.124,1.61,40.393"/>
	<path clip-path="url(#SVGID_2_)" fill="#EEEEEE" d="M10.483,62.741c0,0-2.52-8.262,7.825-12.159
		C18.308,50.582,21.137,59.848,10.483,62.741"/>
	<path clip-path="url(#SVGID_2_)" fill="#EEEEEE" d="M0.008,52.157c0,0,8.638-0.014,9.365,11.016
		C9.373,63.173-0.314,63.192,0.008,52.157"/>
	<path clip-path="url(#SVGID_2_)" fill="#EEEEEE" d="M12.535,72.774c0,0-3.979-7.667,5.486-13.378
		C18.021,59.396,22.486,67.993,12.535,72.774"/>
	<path clip-path="url(#SVGID_2_)" fill="#EEEEEE" d="M0.312,64.268c0,0,8.491-1.584,11.211,9.131
		C11.523,73.399,2,75.178,0.312,64.268"/>
	<path clip-path="url(#SVGID_2_)" fill="#EEEEEE" d="M16.157,82.173c0,0-5.045-7.012,3.496-14.03
		C19.653,68.143,25.313,76.005,16.157,82.173"/>
	<path clip-path="url(#SVGID_2_)" fill="#EEEEEE" d="M2.833,74.958c0,0,8.174-2.794,12.412,7.416
		C15.245,82.374,6.079,85.509,2.833,74.958"/>
	<path clip-path="url(#SVGID_2_)" fill="#EEEEEE" d="M21.985,90.799c0,0-6.327-5.881,0.664-14.444
		C22.649,76.355,29.747,82.949,21.985,90.799"/>
	<path clip-path="url(#SVGID_2_)" fill="#EEEEEE" d="M7.501,86.35c0,0,7.463-4.349,13.63,4.826
		C21.131,91.176,12.762,96.056,7.501,86.35"/>
	<path clip-path="url(#SVGID_2_)" fill="#EEEEEE" d="M28.208,98.906c0,0-7.116-4.896-1.447-14.387
		C26.761,84.519,34.743,90.009,28.208,98.906"/>
	<path clip-path="url(#SVGID_2_)" fill="#EEEEEE" d="M13.23,96.614c0,0,6.75-5.389,14.188,2.789
		C27.418,99.403,19.849,105.45,13.23,96.614"/>
	<path clip-path="url(#SVGID_2_)" fill="#EEEEEE" d="M35.516,105.412c0,0-7.254-4.099-2.614-13.699
		C32.902,91.713,41.038,96.308,35.516,105.412"/>
	<path clip-path="url(#SVGID_2_)" fill="#EEEEEE" d="M20.931,104.485c0,0,6.027-5.753,13.869,1.473
		C34.8,105.958,28.042,112.411,20.931,104.485"/>
	<path clip-path="url(#SVGID_2_)" fill="#EEEEEE" d="M44.231,110.569c0,0-7.892-2.67-5.129-12.969
		C39.102,97.6,47.954,100.593,44.231,110.569"/>
	<path clip-path="url(#SVGID_2_)" fill="#EEEEEE" d="M29.73,112.384c0,0,4.845-6.778,13.899-1.146
		C43.629,111.238,38.197,118.841,29.73,112.384"/>
	<path clip-path="url(#SVGID_2_)" fill="#EEEEEE" d="M53.214,114.892c0,0-8.187-1.543-6.888-12.127
		C46.326,102.765,55.509,104.494,53.214,114.892"/>
	<path clip-path="url(#SVGID_2_)" fill="#EEEEEE" d="M39.108,118.713c0,0,3.852-7.387,13.604-3.074
		C52.712,115.639,48.393,123.926,39.108,118.713"/>
	<path clip-path="url(#SVGID_2_)" fill="#EEEEEE" d="M62.221,117.112c0,0-8.327-0.265-8.672-10.922
		C53.549,106.19,62.888,106.485,62.221,117.112"/>
	<path clip-path="url(#SVGID_2_)" fill="#EEEEEE" d="M48.871,123.058c0,0,2.67-7.892,12.969-5.13
		C61.84,117.928,58.848,126.78,48.871,123.058"/>
</g>
</svg>
