<?xml version="1.0" encoding="utf-8"?>
<!-- Generator: Adobe Illustrator 17.0.0, SVG Export Plug-In . SVG Version: 6.00 Build 0)  -->
<!DOCTYPE svg PUBLIC "-//W3C//DTD SVG 1.1//EN" "http://www.w3.org/Graphics/SVG/1.1/DTD/svg11.dtd">
<svg version="1.1" id="Слой_1" xmlns="http://www.w3.org/2000/svg" xmlns:xlink="http://www.w3.org/1999/xlink" x="0px" y="0px"
	 width="484px" height="444px" viewBox="0 0 484 444" enable-background="new 0 0 484 444" xml:space="preserve">
<g>
	<g>
		<g>
			<path fill="#1D1D1B" d="M137.553,281.604h26.771c15.51,0,20.821,11.367,20.821,22.733c0,15.723-9.667,22.84-24.115,22.84h-8.18
				v30.276h-15.297V281.604z M152.85,315.918h6.799c6.055,0,10.198-3.612,10.198-11.367c0-7.437-2.975-11.686-10.623-11.686h-6.374
				V315.918z"/>
			<path fill="#1D1D1B" d="M195.344,281.604h28.258c12.535,0,20.184,6.587,20.184,19.547c0,10.092-4.037,16.891-12.641,18.696v0.213
				c10.411,1.381,12.004,7.117,12.216,23.158c0.106,7.968,0.531,12.11,3.399,13.598v0.638h-16.572
				c-1.487-2.125-1.806-4.993-1.913-7.968l-0.425-14.554c-0.212-5.948-2.868-9.561-9.03-9.561h-8.18v32.082h-15.297V281.604z
				 M210.641,314.749h6.374c7.33,0,11.473-3.187,11.473-11.367c0-7.011-3.718-10.517-10.624-10.517h-7.224V314.749z"/>
			<path fill="#1D1D1B" d="M279.162,280.117c22.946,0,25.814,16.36,25.814,39.412c0,23.053-2.868,39.412-25.814,39.412
				s-25.814-16.359-25.814-39.412C253.348,296.478,256.216,280.117,279.162,280.117z M279.162,347.681
				c9.03,0,10.518-7.755,10.518-28.151c0-20.29-1.487-28.151-10.518-28.151c-9.029,0-10.517,7.861-10.517,28.151
				C268.646,339.926,270.133,347.681,279.162,347.681z"/>
			<path fill="#1D1D1B" d="M334.298,281.604l18.484,51.947h0.212v-51.947h14.022v75.85h-17.422l-18.696-53.116h-0.213v53.116
				h-14.022v-75.85H334.298z"/>
			<path fill="#1D1D1B" d="M424.702,281.604v12.535H408.13v63.314h-15.298V294.14H376.26v-12.535H424.702z"/>
			<path fill="#1D1D1B" d="M458.165,280.117c22.946,0,25.814,16.36,25.814,39.412c0,23.053-2.868,39.412-25.814,39.412
				s-25.814-16.359-25.814-39.412C432.351,296.478,435.219,280.117,458.165,280.117z M458.165,347.681
				c9.03,0,10.518-7.755,10.518-28.151c0-20.29-1.487-28.151-10.518-28.151c-9.029,0-10.517,7.861-10.517,28.151
				C447.648,339.926,449.136,347.681,458.165,347.681z"/>
			<path fill="#1D1D1B" d="M137.553,366.236h42.387v12.535H152.85v17.848h25.496v12.535H152.85v32.932h-15.297V366.236z"/>
			<path fill="#1D1D1B" d="M190.139,442.086v-75.85h15.297v75.85H190.139z"/>
			<path fill="#1D1D1B" d="M219.458,442.086v-75.85h15.297v63.314h27.089v12.535H219.458z"/>
			<path fill="#1D1D1B" d="M271.619,366.236h22.734l10.835,53.541h0.213l10.941-53.541h22.628v75.85h-14.022v-60.552h-0.213
				l-13.491,60.552h-11.898l-13.491-60.552h-0.212v60.552h-14.023V366.236z"/>
		</g>
		<g>
			<g>
				<path fill="#00AEEF" d="M132.238,177.977c-25.22,0-45.739-20.519-45.739-45.739s20.519-45.739,45.739-45.739
					s45.739,20.519,45.739,45.739S157.458,177.977,132.238,177.977z M132.238,91.478c-22.476,0-40.76,18.285-40.76,40.76
					s18.285,40.76,40.76,40.76s40.76-18.285,40.76-40.76S154.714,91.478,132.238,91.478z"/>
			</g>
			<g>
				<path fill="#00AEEF" d="M132.238,190.335c-32.034,0-58.095-26.061-58.095-58.097c0-32.034,26.061-58.095,58.095-58.095
					c32.036,0,58.097,26.061,58.097,58.095C190.335,164.274,164.274,190.335,132.238,190.335z M132.238,79.122
					c-29.289,0-53.116,23.827-53.116,53.116s23.827,53.119,53.116,53.119s53.119-23.83,53.119-53.119S161.527,79.122,132.238,79.122
					z"/>
			</g>
			<g>
				<path fill="#00AEEF" d="M132.238,202.691c-38.847,0-70.451-31.606-70.451-70.453s31.603-70.453,70.451-70.453
					s70.453,31.606,70.453,70.453S171.085,202.691,132.238,202.691z M132.238,66.763c-36.1,0-65.472,29.372-65.472,65.475
					s29.372,65.475,65.472,65.475c36.103,0,65.475-29.372,65.475-65.475S168.341,66.763,132.238,66.763z"/>
			</g>
			<g>
				<path fill="#00AEEF" d="M132.238,215.05c-45.661,0-82.809-37.148-82.809-82.812c0-45.661,37.148-82.809,82.809-82.809
					c45.663,0,82.812,37.148,82.812,82.809C215.05,177.901,177.901,215.05,132.238,215.05z M132.238,54.407
					c-42.917,0-77.831,34.914-77.831,77.831s34.914,77.833,77.831,77.833s77.833-34.917,77.833-77.833
					S175.155,54.407,132.238,54.407z"/>
			</g>
			<g>
				<path fill="#00AEEF" d="M132.238,227.406c-52.475,0-95.165-42.693-95.165-95.168s42.69-95.165,95.165-95.165
					s95.168,42.69,95.168,95.165S184.713,227.406,132.238,227.406z M132.238,42.051c-49.73,0-90.187,40.457-90.187,90.187
					s40.457,90.189,90.187,90.189s90.189-40.459,90.189-90.189S181.968,42.051,132.238,42.051z"/>
			</g>
			<g>
				<path fill="#00AEEF" d="M132.238,239.762c-59.288,0-107.524-48.235-107.524-107.524S72.95,24.714,132.238,24.714
					c59.291,0,107.526,48.235,107.526,107.524S191.529,239.762,132.238,239.762z M132.238,29.693
					c-56.544,0-102.545,46.001-102.545,102.545s46.001,102.545,102.545,102.545s102.548-46.001,102.548-102.545
					S188.782,29.693,132.238,29.693z"/>
			</g>
			<g>
				<path fill="#00AEEF" d="M132.238,252.12c-66.102,0-119.88-53.78-119.88-119.882s53.778-119.88,119.88-119.88
					S252.12,66.136,252.12,132.238S198.34,252.12,132.238,252.12z M132.238,17.337c-63.358,0-114.901,51.544-114.901,114.901
					S68.88,247.142,132.238,247.142s114.904-51.546,114.904-114.904S195.595,17.337,132.238,17.337z"/>
			</g>
			<g>
				<path fill="#00AEEF" d="M132.238,264.476C59.322,264.476,0,205.154,0,132.238S59.322,0,132.238,0
					s132.238,59.322,132.238,132.238S205.154,264.476,132.238,264.476z M132.238,4.978c-70.171,0-127.26,57.088-127.26,127.26
					s57.088,127.26,127.26,127.26s127.26-57.088,127.26-127.26S202.409,4.978,132.238,4.978z"/>
			</g>
		</g>
	</g>
</g>
</svg>
