<?xml version="1.0" encoding="utf-8"?>
<!-- Generator: Adobe Illustrator 17.0.0, SVG Export Plug-In . SVG Version: 6.00 Build 0)  -->
<!DOCTYPE svg PUBLIC "-//W3C//DTD SVG 1.1//EN" "http://www.w3.org/Graphics/SVG/1.1/DTD/svg11.dtd">
<svg version="1.1" id="Слой_1" xmlns="http://www.w3.org/2000/svg" xmlns:xlink="http://www.w3.org/1999/xlink" x="0px" y="0px"
	 width="177px" height="25px" viewBox="0 0 177 25" enable-background="new 0 0 177 25" xml:space="preserve">
<path fill="#1D1D1B" d="M6.769,14.728l-2.296,0.009l0.041,7.889H0V2.374h6.216c4.541-0.027,7.541,1.506,7.563,6.099
	C13.805,12.984,10.847,14.702,6.769,14.728z M6.31,5.389l-1.882,0.01L4.46,11.64l1.958-0.009c1.551-0.007,2.703-0.943,2.694-3.135
	C9.101,6.303,8.039,5.382,6.31,5.389z"/>
<path fill="#1D1D1B" d="M41.556,22.729c-5.703,0.026-8.4-2.976-8.435-10.2c-0.04-7.092,3.299-10.206,8.328-10.232
	c5.521-0.027,8.403,3.312,8.436,10.146C49.924,19.846,46.738,22.7,41.556,22.729z M41.311,5.185
	c-2.609,0.016-3.653,2.058-3.623,7.372c0.024,5.571,1.532,7.241,3.672,7.231c2.551-0.016,3.99-1.696,3.961-7.269
	C45.291,7.101,43.684,5.175,41.311,5.185z"/>
<path fill="#1D1D1B" d="M63.403,22.626c0,0-3.468-6.519-5.65-10.48c-0.315-0.595-0.97-2.033-0.97-2.033s-0.002,1.522,0,2.164
	c0.023,3.926,0,10.349,0,10.349h-3.878V2.393h3.949c0,0,3.567,6.543,5.803,10.658c0.26,0.49,0.863,2.084,0.863,2.084
	s-0.162-1.599-0.166-2.111c-0.021-4.101,0-10.63,0-10.63h3.995v20.233H63.403z"/>
<path fill="#1D1D1B" d="M79.284,5.644v16.982H74.96V5.644h-4.582v-3.25h13.377v3.25H79.284z"/>
<path fill="#1D1D1B" d="M26.963,22.626c-1.142-0.533-0.276-8.234-3.788-8.234l-1.937,0.009l0.043,8.225h-4.511V2.393h6.934
	c4.514-0.022,6.871,2.028,6.89,5.878c0.016,3.037-1.877,4.299-3.922,4.299c3.535,0,3.572,9.164,4.461,10.055H26.963z M22.406,5.447
	l-1.212,0.004l0.034,5.699l1.722-0.005c1.965-0.01,3.119-0.66,3.11-2.828C26.049,6.305,24.702,5.434,22.406,5.447z"/>
<path fill="#1D1D1B" d="M124.118,5.838l0.026,5.044h6.679v3.386h-6.622v8.253h-4.444V2.479h11.65l0.014,3.359H124.118z"/>
<path fill="#1D1D1B" d="M134.633,22.521V2.479h4.453v20.042H134.633z"/>
<path fill="#1D1D1B" d="M142.595,22.521V2.479h4.296v16.365h7.229v3.678H142.595z"/>
<path fill="#1D1D1B" d="M172.583,22.521c0,0,0.025-7.471,0-12.077c-0.006-1.286,0-3.295,0-3.295s-0.477,2.32-0.705,3.299
	c-1.056,4.608-2.745,12.074-2.745,12.074h-4.624c0,0-1.712-7.5-2.836-12.151c-0.214-0.924-0.69-3.161-0.69-3.161
	s-0.006,1.928,0,3.162c0.026,4.656,0,12.149,0,12.149h-3.984V2.479h6.274c0,0,1.792,7.331,2.893,11.956
	c0.234,0.979,0.632,3.314,0.632,3.314s0.351-2.339,0.575-3.316c1.109-4.667,2.819-11.955,2.819-11.955h6.351v20.042H172.583z"/>
<radialGradient id="SVGID_1_" cx="96.2179" cy="12.5" r="4.0805" gradientUnits="userSpaceOnUse">
	<stop  offset="0.462" style="stop-color:#009990"/>
	<stop  offset="1" style="stop-color:#009EE2"/>
</radialGradient>
<circle fill="none" stroke="url(#SVGID_1_)" stroke-width="1.8" stroke-miterlimit="10" cx="96.218" cy="12.5" r="3.181"/>
<radialGradient id="SVGID_2_" cx="96.2179" cy="12.5" r="7.9294" gradientUnits="userSpaceOnUse">
	<stop  offset="0.462" style="stop-color:#009990"/>
	<stop  offset="1" style="stop-color:#009EE2"/>
</radialGradient>
<circle fill="none" stroke="url(#SVGID_2_)" stroke-width="1.8" stroke-miterlimit="10" cx="96.218" cy="12.5" r="7.029"/>
<radialGradient id="SVGID_3_" cx="96.2179" cy="12.5" r="11.8375" gradientUnits="userSpaceOnUse">
	<stop  offset="0.462" style="stop-color:#009990"/>
	<stop  offset="1" style="stop-color:#009EE2"/>
</radialGradient>
<circle fill="none" stroke="url(#SVGID_3_)" stroke-width="1.8" stroke-miterlimit="10" cx="96.218" cy="12.5" r="10.938"/>
</svg>
